<svg xmlns="http://www.w3.org/2000/svg" width="21" height="20" fill="none">
        <rect
          id="backgroundrect"
          width="100%"
          height="100%"
          x="0"
          y="0"
          fill="none"
          stroke="none"
        />
        <g className="currentLayer">
          <path
            d="m10.123809333226802,15.933801492929458 l-5.4030000000000005,3.286 a0.7500000000000009,0.7500000000000009 0 0 1 -1.12,-0.8130000000000006 l1.456,-6.155 l-4.796,-4.123 a0.7500000000000009,0.7500000000000009 0 0 1 0.4280000000000003,-1.316 l6.303,-0.517 l2.44,-5.835 a0.7500000000000009,0.7500000000000009 0 0 1 1.3840000000000001,0 l2.44,5.835 l6.303,0.517 a0.7500000000000009,0.7500000000000009 0 0 1 0.4270000000000003,1.316 l-4.795,4.123 l1.456,6.155 a0.7500000000000009,0.7500000000000009 0 0 1 -1.12,0.8130000000000006 L10.123809333226802,15.933801492929458 z"
            fill="currentColor"
            id="svg_1"
          />
        </g>
</svg>