<svg width="95" height="83" viewBox="0 0 95 83" fill="currentColor" xmlns="http://www.w3.org/2000/svg">
<path d="M78.0134 82.8389C79.6934 82.8389 81.0668 81.4735 81.0668 79.7842V47.1175H89.0934H89.1067C92.0401 47.1175 94.4134 44.7415 94.4134 41.8095C94.4134 40.1362 93.6401 38.6402 92.4268 37.6669L82.0401 28.6642V13.6856C82.0401 11.9322 80.6267 10.5109 78.88 10.5109H72.3067C70.5601 10.5109 69.1334 11.9322 69.1334 13.6856V17.4602L50.68 1.4362C48.68 -0.29713 45.7201 -0.29713 43.7334 1.4362L1.82678 37.8042C0.160112 39.2535 -0.439914 41.5935 0.33342 43.6708C1.12009 45.7428 3.09339 47.1175 5.30673 47.1175H13.3334V79.7842C13.3334 81.4735 14.7068 82.8389 16.4001 82.8389H34.4535V59.0895C34.4535 55.7322 37.1735 53.0109 40.5201 53.0109H53.8934C57.2534 53.0109 59.9734 55.7322 59.9734 59.0895V82.8389H78.0134Z" fill="currentColor"/>
</svg>
