<svg width="76" height="95" viewBox="0 0 76 95" fill="currentColor" xmlns="http://www.w3.org/2000/svg">
<path d="M59.2 50.6159C58.9467 50.8399 58.7067 51.0586 58.4534 51.2733C58.1867 51.4933 57.9333 51.7106 57.6667 51.9239C57.12 52.3586 56.5601 52.7759 55.9867 53.1759L44.16 77.4826L41.8 63.4866L45.3067 57.8613C44.88 57.9546 44.4533 58.0399 44.0133 58.1159C42.9066 58.3119 41.7867 58.4466 40.6534 58.5159C40.0267 58.5559 39.4 58.5839 38.76 58.5839C36.3334 58.5839 33.9733 58.2866 31.7067 57.7439L35.2667 63.4906L33.04 77.7373L19.9333 51.9826C19.3333 51.5026 18.7467 50.9986 18.1867 50.4719L17.9466 50.6826C0.399963 65.8573 0.640068 92.4119 0.653401 93.5333L0.666683 94.4746H75.76L75.7201 93.4786C74.4801 62.7986 62.2133 52.6533 59.2 50.6159Z" fill="currentColor"/>
<path d="M38.76 0.141306C23.2266 0.141306 10.5732 12.788 10.5732 28.328C10.5732 43.8706 23.2266 56.5146 38.76 56.5146C54.3066 56.5146 66.9465 43.8706 66.9465 28.328C66.9465 12.788 54.3066 0.141306 38.76 0.141306Z" fill="currentColor"/>
</svg>
