<svg width="98" height="98" viewBox="0 0 98 98" fill="currentColor" xmlns="http://www.w3.org/2000/svg">
<path d="M48.9948 87.6159C27.8161 87.6159 10.5868 70.3865 10.5868 49.2092C10.5868 32.3479 21.5135 17.9985 36.6535 12.8452V23.2972C26.9855 27.9185 20.2895 37.7972 20.2895 49.2092C20.2895 65.0359 33.1655 77.9159 48.9948 77.9159C64.8241 77.9159 77.6961 65.0359 77.6961 49.2092C77.6961 37.7972 71.0041 27.9185 61.3335 23.2972V12.8452C76.4761 17.9985 87.4015 32.3479 87.4015 49.2092C87.4015 70.3865 70.1721 87.6159 48.9948 87.6159ZM43.0455 6.75053H54.7188V42.1332H43.0455V6.75053ZM48.9948 0.955865C22.3628 0.955865 0.776123 22.5465 0.776123 49.1759C0.776123 75.8052 22.3628 97.3945 48.9948 97.3945C75.6228 97.3945 97.2135 75.8052 97.2135 49.1759C97.2135 22.5465 75.6228 0.955865 48.9948 0.955865Z" fill="currentColor"/>
</svg>
