<?xml version="1.0" standalone="no"?>
<!DOCTYPE svg PUBLIC "-//W3C//DTD SVG 20010904//EN"
 "http://www.w3.org/TR/2001/REC-SVG-20010904/DTD/svg10.dtd">
<svg version="1.0" xmlns="http://www.w3.org/2000/svg"
 width="100.000000pt" height="100.000000pt" viewBox="0 0 100.000000 100.000000"
 preserveAspectRatio="xMidYMid meet">
<metadata>
Created by potrace 1.14, written by Peter Selinger 2001-2017
</metadata>
<g transform="translate(0.000000,100.000000) scale(0.100000,-0.100000)"
fill="#000000" stroke="none">
<path d="M409 967 c-47 -25 -96 -92 -101 -137 -3 -23 1 -25 41 -30 62 -7 65
-28 4 -32 -48 -3 -48 -3 -51 -40 -3 -38 -3 -38 35 -38 21 0 44 -4 52 -9 24
-15 1 -31 -45 -31 l-44 0 0 -40 0 -40 44 0 c46 0 69 -16 45 -31 -8 -5 -29 -9
-46 -9 -39 0 -41 -11 -10 -65 24 -43 77 -83 120 -92 23 -5 27 -10 27 -39 0
-40 -14 -43 -75 -15 -60 27 -101 66 -129 123 -23 47 -26 64 -26 164 0 87 3
114 15 124 20 16 19 74 -1 94 -24 24 -80 20 -98 -6 -22 -31 -20 -52 8 -85 22
-26 24 -38 25 -133 0 -58 5 -120 10 -138 26 -88 112 -172 205 -201 l61 -19 3
-50 c2 -41 -1 -55 -17 -71 -43 -43 -14 -113 46 -114 54 0 83 72 43 108 -16 14
-20 31 -20 77 0 53 2 58 23 58 35 0 139 54 174 91 17 19 43 59 57 89 23 49 26
68 26 168 0 99 2 114 20 132 25 25 26 72 2 93 -27 25 -78 22 -96 -5 -21 -30
-20 -50 4 -81 17 -21 20 -40 20 -124 0 -121 -17 -177 -70 -232 -43 -44 -78
-65 -127 -76 -32 -6 -33 -6 -33 29 0 21 5 36 12 36 35 0 102 46 129 88 39 61
37 70 -13 74 -30 2 -43 8 -43 18 0 11 13 16 48 18 l47 3 0 39 0 39 -47 3 c-35
2 -48 7 -48 18 0 11 13 16 48 18 l48 3 -3 37 c-3 37 -4 37 -50 40 -34 2 -48 7
-48 18 0 10 12 14 45 14 50 0 55 11 34 67 -39 103 -179 153 -280 100z m157
-26 c43 -19 76 -52 38 -37 -58 23 -129 23 -204 1 -25 -8 -25 -8 3 14 52 43
103 49 163 22z m-336 -175 c-13 -13 -35 7 -25 24 5 8 11 8 21 -1 10 -8 12 -15
4 -23z m570 8 c0 -16 -16 -19 -25 -4 -8 13 4 32 16 25 5 -4 9 -13 9 -21z
m-300 -334 c28 0 67 7 87 15 45 19 49 19 32 -1 -48 -58 -180 -58 -228 0 -12
15 -10 15 22 1 20 -8 59 -15 87 -15z m15 -368 c0 -18 -20 -15 -23 4 -3 10 1
15 10 12 7 -3 13 -10 13 -16z"/>
</g>
</svg>
